 <svg  version="1.0" xmlns="http://www.w3.org/2000/svg"  width="300.000000pt" height="300.000000pt" viewBox="0 0 300.000000 300.000000"  preserveAspectRatio="xMidYMid meet">  <g transform="translate(0.000000,300.000000) scale(0.100000,-0.100000)" fill="#1e1010" stroke="none"> <path d="M994 2815 c-3 -8 -4 -35 -2 -59 l3 -45 -45 -3 -45 -3 -3 -197 c-2 -195 -3 -197 -25 -200 -12 -2 -21 -7 -19 -13 1 -6 104 -10 282 -10 178 0 281 4 283 10 1 6 -8 11 -20 13 -22 3 -23 5 -25 200 l-3 197 -42 3 -42 3 -3 57 -3 57 -143 3 c-120 2 -143 0 -148 -13z m276 -95 l0 -80 -127 0 -128 0 3 80 4 80 124 0 124 0 0 -80z m-280 -65 l0 -35 150 0 150 0 0 35 c0 33 2 35 35 35 l35 0 0 -190 0 -190 -85 0 -84 0 -3 73 -3 72 -42 3 -43 3 0 -75 0 -76 -85 0 -85 0 0 190 0 190 30 0 c28 0 30 -3 30 -35z m180 -285 c0 -57 -1 -60 -25 -60 -24 0 -25 3 -25 60 0 57 1 60 25 60 24 0 25 -3 25 -60z"/> <path d="M1090 2719 c0 -37 4 -58 10 -54 6 3 10 15 10 26 0 28 57 27 62 -1 6 -41 23 -19 26 35 2 44 0 55 -13 55 -9 0 -15 -9 -15 -25 0 -21 -5 -25 -30 -25 -25 0 -30 4 -30 25 0 14 -4 25 -10 25 -6 0 -10 -27 -10 -61z"/> <path d="M970 2541 l0 -51 41 0 40 0 -3 47 c-3 47 -4 47 -40 51 l-38 3 0 -50z m60 -4 c0 -16 -6 -23 -20 -23 -14 0 -20 7 -20 23 0 16 6 23 20 23 14 0 20 -7 20 -23z"/> <path d="M1105 2582 c-3 -3 -5 -25 -5 -49 l0 -44 43 3 42 3 0 45 0 44 -37 1 c-21 1 -40 0 -43 -3z m65 -40 c0 -25 -7 -31 -31 -25 -29 8 -25 43 6 43 18 0 25 -5 25 -18z"/> <path d="M1234 2581 c-2 -2 -4 -24 -4 -48 l0 -43 46 0 45 0 -3 48 -3 47 -38 0 c-21 0 -40 -1 -43 -4z m64 -43 c-2 -15 -10 -23 -23 -23 -13 0 -21 8 -23 23 -3 18 1 22 23 22 22 0 26 -4 23 -22z"/> <path d="M970 2410 l0 -50 40 0 40 0 0 50 0 50 -40 0 -40 0 0 -50z m60 -5 c0 -18 -5 -25 -20 -25 -15 0 -20 7 -20 25 0 18 5 25 20 25 15 0 20 -7 20 -25z"/> <path d="M1237 2454 c-4 -4 -7 -27 -7 -51 l0 -43 46 0 45 0 -3 48 c-3 46 -4 47 -38 50 -20 2 -39 0 -43 -4z m63 -49 c0 -18 -5 -25 -20 -25 -15 0 -20 7 -20 25 0 18 5 25 20 25 15 0 20 -7 20 -25z"/> <path d="M1657 2812 c-15 -16 -17 -49 -17 -259 0 -220 2 -241 18 -256 16 -15 46 -17 218 -17 142 0 203 3 212 12 9 9 12 80 12 259 0 212 -2 250 -16 263 -13 14 -47 16 -213 16 -179 0 -199 -2 -214 -18z m421 -251 c2 -166 -1 -238 -9 -247 -10 -12 -49 -14 -203 -12 l-191 3 -3 248 -2 247 202 -2 203 -3 3 -234z"/> <path d="M1792 2720 c-52 -32 -74 -75 -70 -141 7 -97 74 -157 166 -146 82 9 136 69 136 150 0 61 -26 112 -72 140 -41 23 -118 22 -160 -3z m35 -30 c-8 -21 -18 -30 -34 -30 -30 0 -29 14 3 39 36 29 44 26 31 -9z m71 5 c18 -39 15 -45 -23 -45 -37 0 -44 14 -25 51 15 26 35 24 48 -6z m54 -3 c19 -16 15 -32 -6 -32 -11 0 -36 39 -36 56 0 7 20 -5 42 -24z m-155 -52 c9 0 13 -8 11 -22 -2 -18 -11 -24 -35 -26 -35 -3 -36 -1 -27 36 4 15 12 21 21 18 8 -3 21 -6 30 -6z m204 -23 c7 -25 5 -27 -27 -27 -29 0 -34 3 -34 24 0 15 7 26 18 29 27 7 35 2 43 -26z m-81 -7 c0 -17 -7 -20 -49 -20 -44 0 -49 2 -44 20 4 16 14 20 49 20 37 0 44 -3 44 -20z m-112 -67 c3 -19 -1 -23 -22 -23 -15 0 -30 8 -36 19 -15 29 -13 33 23 29 24 -2 33 -8 35 -25z m112 8 c0 -15 -9 -20 -45 -23 -41 -3 -45 -1 -45 19 0 21 5 23 45 23 38 0 45 -3 45 -19z m78 -3 c-2 -17 -11 -24 -30 -26 -24 -3 -28 0 -28 22 0 22 4 26 31 26 26 0 30 -3 27 -22z m-178 -59 c16 -29 7 -34 -25 -13 -20 13 -23 19 -13 25 20 13 26 11 38 -12z m90 16 c0 -2 -5 -16 -12 -30 -13 -30 -33 -32 -48 -6 -17 32 -12 41 25 41 19 0 35 -2 35 -5z m49 -4 c10 -7 8 -12 -10 -25 -33 -23 -40 -20 -27 9 12 27 16 29 37 16z"/> <path d="M1756 2371 c-4 -5 -3 -11 1 -13 19 -9 228 -2 231 7 3 13 -224 19 -232 6z"/> <path d="M2552 2813 c-78 -38 -81 -125 -8 -227 26 -36 53 -66 60 -66 19 0 95 102 111 147 21 60 -2 121 -56 149 -36 18 -66 18 -107 -3z m119 -42 c18 -19 29 -40 29 -58 0 -31 -46 -118 -78 -146 -19 -17 -20 -17 -51 22 -66 83 -75 151 -24 191 38 30 88 26 124 -9z"/> <path d="M2558 2735 c-8 -19 -8 -31 0 -51 17 -35 70 -31 91 8 14 24 14 28 -3 47 -27 30 -73 28 -88 -4z m70 -23 c4 -28 -24 -40 -45 -19 -14 13 -14 19 -3 32 18 22 44 15 48 -13z"/> <path d="M595 2790 c-11 -4 -44 -31 -73 -59 l-54 -52 -113 26 c-136 30 -171 32 -184 6 -14 -26 0 -40 96 -96 46 -26 83 -50 83 -52 0 -2 -16 -24 -36 -47 -34 -41 -38 -43 -73 -35 -48 11 -47 11 -65 -7 -21 -20 -7 -47 33 -63 16 -7 31 -22 34 -33 3 -11 14 -22 24 -25 10 -2 27 -19 38 -36 38 -60 82 -36 66 35 -8 34 -6 37 39 76 l48 41 52 -87 c54 -89 65 -102 88 -102 31 0 32 44 4 173 -24 107 -26 129 -15 139 36 29 94 109 99 136 10 52 -38 85 -91 62z m63 -53 c3 -25 -13 -46 -125 -158 -138 -140 -218 -203 -251 -197 l-21 3 20 44 c13 30 69 95 168 194 131 132 151 148 177 145 23 -2 30 -8 32 -31z m-330 -51 c63 -13 115 -26 118 -28 2 -2 -13 -21 -34 -41 l-37 -37 -93 56 c-51 30 -90 60 -87 65 8 12 3 12 133 -15z m251 -246 c21 -109 22 -153 3 -124 -4 6 -29 45 -55 87 l-48 77 33 40 c18 22 35 40 39 40 3 0 15 -54 28 -120z m-325 14 c16 -6 11 -34 -8 -34 -6 0 -22 9 -36 20 l-25 20 27 0 c14 0 33 -3 42 -6z m96 -116 l-1 -33 -19 24 c-21 24 -19 41 6 41 9 0 14 -11 14 -32z"/> <path d="M596 2742 c-3 -5 3 -17 13 -26 11 -10 22 -13 25 -8 3 5 -3 17 -13 26 -11 10 -22 13 -25 8z"/> <path d="M2337 2603 c-4 -3 -7 -70 -7 -149 0 -133 -1 -142 -20 -147 -11 -3 -20 -10 -20 -16 0 -8 83 -11 275 -11 177 0 275 4 275 10 0 6 -7 10 -15 10 -12 0 -15 23 -17 123 l-3 122 -75 0 c-74 0 -75 0 -78 -27 -3 -27 -5 -28 -68 -28 l-64 0 0 44 c0 74 -2 76 -94 76 -46 0 -86 -3 -89 -7z m153 -155 l0 -143 -67 2 -67 1 0 136 -1 135 65 4 c36 2 66 4 68 5 1 1 2 -62 2 -140z m290 -30 l0 -113 -52 1 -53 2 -3 111 -3 111 56 0 55 0 0 -112z m-130 -35 l0 -81 -65 1 -65 2 0 80 0 80 65 0 65 0 0 -82z"/> <path d="M2390 2530 c0 -11 5 -20 10 -20 6 0 10 9 10 20 0 11 -4 20 -10 20 -5 0 -10 -9 -10 -20z"/> <path d="M2440 2530 c0 -11 5 -20 10 -20 6 0 10 9 10 20 0 11 -4 20 -10 20 -5 0 -10 -9 -10 -20z"/> <path d="M2390 2450 c0 -11 5 -20 10 -20 6 0 10 9 10 20 0 11 -4 20 -10 20 -5 0 -10 -9 -10 -20z"/> <path d="M2440 2450 c0 -11 5 -20 10 -20 6 0 10 9 10 20 0 11 -4 20 -10 20 -5 0 -10 -9 -10 -20z"/> <path d="M2390 2380 c0 -11 5 -20 10 -20 6 0 10 9 10 20 0 11 -4 20 -10 20 -5 0 -10 -9 -10 -20z"/> <path d="M2440 2380 c0 -11 5 -20 10 -20 6 0 10 9 10 20 0 11 -4 20 -10 20 -5 0 -10 -9 -10 -20z"/> <path d="M2707 2483 c-14 -13 -6 -23 18 -23 16 0 25 6 25 15 0 15 -31 21 -43 8z"/> <path d="M2700 2420 c0 -5 11 -10 25 -10 14 0 25 5 25 10 0 6 -11 10 -25 10 -14 0 -25 -4 -25 -10z"/> <path d="M2700 2370 c0 -5 11 -10 25 -10 14 0 25 5 25 10 0 6 -11 10 -25 10 -14 0 -25 -4 -25 -10z"/> <path d="M2550 2410 c0 -11 5 -20 10 -20 6 0 10 9 10 20 0 11 -4 20 -10 20 -5 0 -10 -9 -10 -20z"/> <path d="M2600 2410 c0 -11 5 -20 10 -20 6 0 10 9 10 20 0 11 -4 20 -10 20 -5 0 -10 -9 -10 -20z"/> <path d="M2550 2350 c0 -11 5 -20 10 -20 6 0 10 9 10 20 0 11 -4 20 -10 20 -5 0 -10 -9 -10 -20z"/> <path d="M2600 2350 c0 -11 5 -20 10 -20 6 0 10 9 10 20 0 11 -4 20 -10 20 -5 0 -10 -9 -10 -20z"/> <path d="M938 2113 c-26 -7 -22 -28 9 -48 l26 -18 -39 -13 c-40 -14 -67 -40 -60 -59 2 -5 8 -9 14 -8 70 15 106 7 85 -19 -18 -22 -43 -119 -43 -168 0 -41 -4 -50 -36 -78 -27 -24 -35 -38 -32 -59 l3 -28 278 -3 277 -2 0 32 c0 31 -3 34 -59 52 -32 10 -64 15 -71 11 -6 -4 -21 2 -33 13 -47 42 -89 57 -170 57 l-78 0 7 50 c3 28 12 66 18 85 10 30 16 35 40 33 16 -1 47 -14 68 -28 48 -32 73 -27 63 13 -8 33 -22 50 -58 73 l-29 17 31 18 c33 19 46 40 31 49 -20 13 -80 7 -106 -10 -25 -16 -27 -16 -36 0 -8 14 -70 48 -80 44 -2 -1 -11 -3 -20 -6z m73 -52 c27 -28 38 -52 22 -50 -5 0 -23 18 -42 40 -39 45 -23 53 20 10z m138 5 c-16 -16 -82 -56 -92 -56 -21 1 53 60 75 60 12 0 19 -2 17 -4z m-135 -66 c17 -17 2 -19 -49 -6 -29 8 -43 15 -35 19 19 8 71 0 84 -13z m134 -30 c53 -32 41 -52 -15 -24 -25 13 -53 24 -60 24 -8 0 -11 5 -8 10 10 16 47 12 83 -10z m-136 -52 c-20 -53 -20 -54 -32 -42 -14 14 15 84 34 84 12 0 12 -7 -2 -42z m-19 -88 c-6 -23 -33 -15 -33 10 0 13 6 17 19 13 12 -3 17 -11 14 -23z m-3 -55 c0 -8 -9 -19 -20 -25 -18 -9 -20 -8 -20 15 0 18 5 25 20 25 11 0 20 -7 20 -15z m206 -46 c45 -21 106 -78 69 -65 -43 16 -76 18 -104 6 -23 -9 -37 -9 -65 1 -27 10 -43 10 -73 1 -30 -9 -47 -8 -77 2 l-39 14 40 26 c70 46 169 52 249 15z m173 -65 c17 -8 29 -19 26 -24 -7 -12 -500 -7 -502 5 -1 6 12 9 30 7 17 -2 49 -3 70 -3 20 0 51 1 67 1 17 0 48 0 70 0 22 0 52 0 68 1 15 1 42 -1 60 -6 29 -7 34 -5 39 14 6 25 28 27 72 5z"/> <path d="M327 2082 c-10 -10 -17 -35 -17 -56 l0 -37 -60 2 c-91 3 -92 2 -92 -186 1 -105 5 -161 13 -171 9 -11 57 -14 254 -14 213 0 244 2 256 17 10 12 15 56 16 164 2 131 1 150 -16 171 -17 20 -26 22 -80 20 l-61 -3 0 35 c0 60 -26 76 -118 76 -64 0 -82 -4 -95 -18z m181 -54 l3 -38 -85 0 -86 0 0 33 c0 19 3 37 7 41 4 4 41 5 83 4 l75 -3 3 -37z m-258 -223 l0 -165 -23 0 c-43 0 -47 15 -47 170 0 81 3 150 7 153 3 4 19 7 35 7 l28 0 0 -165z m60 0 c0 -158 -1 -165 -20 -165 -19 0 -20 7 -20 165 0 158 1 165 20 165 19 0 20 -7 20 -165z m210 0 l0 -165 -95 0 -95 0 0 165 0 165 95 0 95 0 0 -165z m60 0 c0 -158 -1 -165 -20 -165 -19 0 -20 7 -20 165 0 158 1 165 20 165 19 0 20 -7 20 -165z m88 11 c3 -154 -2 -176 -39 -176 -17 0 -18 13 -21 165 l-3 166 30 -3 30 -3 3 -149z"/> <path d="M1310 2080 c0 -11 4 -20 9 -20 11 0 22 26 14 34 -12 12 -23 5 -23 -14z"/> <path d="M1686 2074 c-75 -76 17 -199 112 -150 38 20 52 44 52 89 0 77 -108 117 -164 61z m121 -17 c42 -43 9 -117 -52 -117 -24 0 -39 7 -54 26 -28 35 -26 59 5 91 20 20 31 24 57 19 17 -4 37 -12 44 -19z"/> <path d="M2659 2081 c-13 -10 -47 -26 -74 -35 -50 -16 -53 -16 -124 9 -70 23 -74 24 -114 8 -23 -9 -45 -21 -49 -27 -4 -6 -8 -93 -8 -194 0 -204 0 -205 66 -177 38 15 40 15 111 -16 l73 -32 86 33 85 33 45 -21 c77 -38 74 -45 74 168 0 125 -4 198 -12 215 -24 52 -113 73 -159 36z m122 -27 c38 -34 28 -108 -26 -178 l-28 -37 -24 23 c-54 50 -80 143 -50 180 31 40 91 46 128 12z m-401 -82 l0 -79 38 -17 37 -17 1 -89 c0 -50 -2 -90 -3 -90 -2 0 -17 7 -33 15 -27 14 -33 14 -60 0 -16 -8 -31 -15 -35 -15 -3 0 -5 78 -5 173 0 170 0 174 23 185 12 6 25 11 30 11 4 1 7 -34 7 -77z m148 -144 c2 -98 1 -178 -3 -178 -3 0 -15 5 -26 10 -17 10 -19 22 -19 114 l0 103 -36 14 -36 14 0 65 c0 36 1 68 1 71 1 3 27 -3 59 -14 l57 -20 3 -179z m89 158 c0 -32 7 -57 26 -85 15 -23 23 -41 17 -41 -22 0 -60 -49 -60 -78 0 -24 -30 -72 -45 -72 -3 0 -5 67 -5 149 l0 149 28 10 c15 6 30 11 33 11 3 1 6 -19 6 -43z m190 -313 c-3 -2 -21 4 -41 13 -35 17 -36 20 -36 71 0 48 4 59 38 99 l37 45 3 -112 c1 -61 1 -113 -1 -116z m-108 163 c7 -8 11 -38 9 -71 l-3 -58 -75 -28 c-41 -16 -76 -29 -77 -29 -2 0 -3 9 -3 19 0 11 9 23 20 26 26 8 46 40 55 85 4 19 17 43 28 52 27 21 31 22 46 4z"/> <path d="M2684 2019 c-17 -19 -17 -23 -3 -47 27 -49 89 -37 89 17 0 51 -51 69 -86 30z m54 -8 c19 -11 11 -45 -11 -49 -19 -4 -32 20 -23 43 6 17 15 19 34 6z"/> <path d="M1240 2056 c0 -14 24 -29 33 -19 3 3 3 11 0 19 -7 18 -33 18 -33 0z"/> <path d="M1365 2059 c-4 -6 -4 -13 -1 -16 8 -8 36 5 36 17 0 13 -27 13 -35 -1z"/> <path d="M1281 2024 c-27 -34 -26 -40 4 -70 14 -14 25 -36 25 -50 0 -16 5 -24 13 -21 6 2 11 14 9 26 -2 14 6 29 22 42 31 24 33 52 6 79 -27 27 -55 25 -79 -6z m64 -10 c18 -18 16 -33 -7 -47 -35 -22 -66 21 -36 51 16 16 23 15 43 -4z"/> <path d="M1220 2000 c-12 -8 -12 -10 3 -16 21 -8 35 2 21 16 -5 5 -15 6 -24 0z"/> <path d="M1396 2003 c-12 -12 -5 -23 14 -23 11 0 20 4 20 9 0 11 -26 22 -34 14z"/> <path d="M1937 1978 c-14 -18 -46 -66 -73 -107 l-49 -73 -37 42 c-38 42 -39 43 -59 24 -35 -32 -160 -214 -154 -224 8 -13 632 -14 639 -1 4 5 -11 36 -32 68 -22 32 -73 110 -115 174 -41 64 -80 120 -86 123 -5 4 -21 -8 -34 -26z m67 -60 c27 -39 33 -55 25 -65 -9 -10 -17 -10 -40 4 -26 16 -29 16 -47 0 -19 -17 -44 -22 -55 -11 -6 6 69 124 78 124 3 0 20 -23 39 -52z m-177 -170 c31 -37 61 -68 65 -68 18 0 6 28 -27 60 -19 19 -35 36 -35 39 0 4 9 17 19 30 15 20 21 22 40 12 18 -10 26 -9 49 8 27 19 28 19 52 1 23 -17 26 -17 42 -3 22 20 19 22 84 -79 l53 -83 -145 -3 c-80 -1 -208 -1 -285 0 l-140 3 67 92 c78 107 64 108 161 -9z"/> <path d="M1253 1943 c-18 -6 -16 -33 1 -33 19 0 31 19 20 30 -5 4 -15 5 -21 3z"/> <path d="M1360 1936 c0 -18 17 -29 30 -21 8 5 7 11 -1 21 -15 18 -29 18 -29 0z"/> <path d="M1088 1420 c-22 -23 -39 -30 -67 -30 -64 0 -74 -20 -66 -139 7 -98 7 -101 -13 -101 -29 0 -42 -29 -42 -94 0 -44 4 -60 21 -75 26 -24 36 -34 60 -60 18 -20 29 -21 167 -21 132 0 151 2 165 18 10 10 17 24 17 30 0 6 12 17 28 24 25 12 27 18 30 81 3 71 -7 97 -37 97 -14 0 -15 10 -11 73 11 136 -2 167 -73 167 -30 0 -45 6 -67 30 -18 19 -38 30 -55 30 -16 0 -38 -12 -57 -30z m86 -6 c31 -12 16 -24 -29 -24 -25 0 -45 4 -45 9 0 17 45 26 74 15z m-124 -124 c0 -91 -11 -101 -54 -49 -46 54 -28 129 30 129 23 0 24 -2 24 -80z m179 0 l-1 -80 -79 0 -79 0 0 80 0 80 80 0 80 0 -1 -80z m79 68 c7 -7 12 -32 12 -55 0 -33 -6 -50 -25 -68 -39 -40 -45 -32 -45 55 0 77 1 80 23 80 13 0 28 -5 35 -12z m-290 -164 c19 -9 32 -23 32 -35 0 -10 5 -19 10 -19 6 0 10 11 10 25 0 25 1 25 81 25 77 0 80 -1 77 -22 -2 -11 3 -23 10 -25 7 -3 12 5 12 20 0 14 7 27 18 31 9 3 23 9 30 12 20 9 17 -250 -4 -270 -12 -13 -40 -16 -142 -16 -177 0 -172 -5 -172 161 0 71 2 129 3 129 2 0 18 -7 35 -16z m-58 -134 c0 -56 -3 -70 -15 -70 -12 0 -15 14 -15 63 0 35 3 67 7 70 17 18 23 1 23 -63z m399 56 c18 -21 10 -120 -9 -124 -13 -2 -16 10 -15 68 0 72 4 80 24 56z"/> <path d="M1027 1114 c-4 -4 -7 -35 -7 -69 0 -86 11 -95 126 -95 119 0 126 5 122 95 l-3 70 -116 3 c-63 1 -118 -1 -122 -4z m223 -34 c0 -19 -7 -20 -105 -20 -81 0 -105 3 -105 13 0 24 12 27 112 27 91 0 98 -1 98 -20z m0 -71 c0 -34 -14 -39 -111 -39 -76 0 -80 1 -89 26 -6 14 -8 29 -6 32 2 4 50 7 105 7 l101 0 0 -26z"/> <path d="M1820 1413 c-11 -15 -19 -32 -16 -39 3 -8 -17 -25 -49 -43 -76 -43 -110 -102 -110 -192 0 -56 5 -73 30 -115 41 -65 108 -107 183 -112 48 -3 66 1 112 25 61 32 115 100 126 159 17 90 -35 201 -113 239 -30 14 -42 26 -43 43 -1 59 -82 83 -120 35z m71 -3 c10 -6 19 -20 19 -30 0 -17 -7 -20 -40 -20 -33 0 -40 3 -40 20 0 10 8 24 18 29 21 13 20 13 43 1z m67 -89 c79 -41 116 -106 110 -197 -3 -52 -9 -70 -34 -100 -52 -64 -78 -78 -152 -82 -79 -3 -125 18 -176 81 -29 36 -31 45 -31 117 0 72 2 81 31 117 61 77 172 105 252 64z"/> <path d="M1795 1295 c-69 -38 -95 -80 -95 -158 0 -146 168 -224 280 -131 42 36 61 77 62 133 0 95 -63 162 -160 168 -39 3 -66 -1 -87 -12z m65 -25 c0 -26 28 -26 32 0 3 19 4 19 44 1 24 -11 50 -33 62 -53 24 -39 29 -77 10 -74 -7 0 -13 -3 -13 -9 0 -5 6 -9 13 -9 32 4 -10 -80 -57 -112 -40 -27 -74 -32 -65 -10 3 8 0 17 -6 21 -7 4 -14 -2 -17 -14 -7 -26 -29 -27 -70 -1 -36 22 -58 52 -69 93 -5 24 -4 28 11 25 10 -2 20 3 23 11 3 10 -1 12 -18 8 -20 -5 -22 -3 -16 24 9 45 33 76 79 98 52 26 57 26 57 1z"/> <path d="M1890 1200 c-47 -24 -59 -36 -83 -85 -15 -31 -25 -60 -22 -66 4 -5 32 5 64 23 51 28 61 39 84 90 14 32 22 60 19 62 -4 2 -32 -9 -62 -24z m20 -27 c-1 -20 -18 -33 -34 -27 -17 6 -16 8 5 20 29 16 29 16 29 7z m-56 -73 c-35 -21 -38 -20 -23 13 10 22 15 25 32 16 18 -10 18 -12 -9 -29z"/> <path d="M347 1392 c-10 -10 -17 -26 -17 -35 0 -13 -13 -17 -72 -19 -95 -4 -98 -10 -98 -184 0 -118 2 -134 21 -158 l20 -26 225 0 c291 0 272 -14 266 195 -2 83 -8 156 -14 163 -6 7 -34 12 -69 12 -51 0 -59 3 -59 18 0 37 -32 52 -112 52 -60 0 -78 -4 -91 -18z m173 -16 c0 -2 3 -11 6 -20 5 -14 -6 -16 -84 -16 -85 0 -90 1 -85 20 5 18 14 20 84 20 44 0 79 -2 79 -4z m138 -68 c7 -7 12 -27 12 -45 l0 -33 -56 0 c-48 0 -61 4 -91 30 -28 25 -42 30 -83 30 -41 0 -55 -5 -83 -30 -31 -27 -42 -30 -101 -30 l-66 0 0 33 c0 18 5 38 12 45 17 17 439 17 456 0z m-148 -65 c79 -72 42 -188 -62 -200 -37 -4 -49 -1 -75 21 -36 31 -57 82 -47 120 3 14 22 39 40 56 47 40 101 41 144 3z m-205 -62 c-16 -96 75 -181 169 -157 68 17 115 98 96 165 -8 28 -7 32 6 27 9 -3 33 -6 55 -6 l40 0 -3 -102 -3 -103 -235 0 -235 0 -3 102 -3 102 53 4 c29 2 57 4 61 5 5 1 6 -15 2 -37z"/> <path d="M225 1260 c3 -5 19 -10 36 -10 16 0 29 5 29 10 0 6 -16 10 -36 10 -21 0 -33 -4 -29 -10z"/> <path d="M384 1216 c-63 -53 -16 -155 65 -142 45 7 71 38 71 83 0 72 -80 108 -136 59z m98 -13 c37 -33 8 -113 -41 -113 -30 0 -63 33 -63 63 0 57 63 87 104 50z"/> <path d="M2302 1338 c-18 -18 -17 -322 2 -337 9 -8 90 -11 272 -9 l259 3 0 175 0 175 -260 3 c-194 2 -264 -1 -273 -10z m516 -170 l3 -158 -66 0 c-50 0 -65 3 -65 14 0 24 -21 30 -27 7 -5 -20 -11 -21 -174 -21 l-169 0 0 160 0 160 248 -2 247 -3 3 -157z"/> <path d="M2664 1297 c-7 -20 -2 -47 11 -50 14 -3 19 43 6 56 -7 7 -12 6 -17 -6z"/> <path d="M2516 1251 c-26 -27 -30 -28 -72 -19 -25 6 -53 7 -62 3 -13 -6 -7 -11 27 -26 l44 -19 -24 -26 c-16 -17 -30 -23 -46 -19 -12 3 -25 0 -28 -6 -4 -6 2 -13 13 -16 13 -3 18 -11 15 -19 -3 -8 1 -14 10 -14 9 0 20 -7 25 -16 5 -9 15 -14 21 -10 6 4 9 12 5 17 -6 10 33 59 47 59 4 0 13 -16 19 -35 20 -60 32 -52 29 18 -2 52 2 70 19 95 44 61 10 87 -42 33z m25 -18 c-13 -25 -121 -129 -121 -118 0 8 120 135 128 135 1 0 -2 -8 -7 -17z"/> <path d="M2666 1213 c-12 -13 -6 -53 9 -53 9 0 15 9 15 24 0 26 -12 40 -24 29z"/> <path d="M2720 1190 c0 -5 16 -10 35 -10 19 0 35 5 35 10 0 6 -16 10 -35 10 -19 0 -35 -4 -35 -10z"/> <path d="M2720 1130 c0 -5 16 -10 35 -10 19 0 35 5 35 10 0 6 -16 10 -35 10 -19 0 -35 -4 -35 -10z"/> <path d="M2662 1105 c2 -14 8 -26 13 -26 6 0 11 12 13 26 2 18 -1 25 -13 25 -12 0 -15 -7 -13 -25z"/> <path d="M2524 730 c-6 -29 -8 -30 -68 -30 -33 0 -67 -4 -74 -9 -9 -5 -12 -27 -10 -72 l3 -64 76 -3 c72 -3 77 -4 71 -24 -5 -19 -10 -20 -68 -15 -60 4 -64 3 -93 -27 -17 -18 -31 -36 -31 -42 0 -6 15 -24 33 -42 30 -29 39 -32 95 -32 l62 0 0 -75 0 -75 -41 0 c-26 0 -39 -4 -37 -12 5 -15 231 -15 236 1 2 7 -12 11 -37 11 l-41 0 0 75 0 75 63 0 c36 0 68 5 75 12 15 15 16 110 1 125 -6 6 -35 9 -75 5 -62 -5 -64 -4 -64 19 0 23 2 24 67 21 67 -3 68 -3 105 35 l38 39 -31 37 c-30 37 -31 37 -103 37 l-73 0 -6 30 c-6 25 -11 30 -37 30 -26 0 -31 -5 -36 -30z m50 -15 c3 -9 0 -15 -9 -15 -8 0 -15 7 -15 15 0 8 4 15 9 15 5 0 11 -7 15 -15z m183 -67 l23 -22 -22 -23 c-21 -22 -27 -23 -190 -23 l-168 0 0 45 0 45 167 0 c158 0 168 -1 190 -22z m-177 -118 c0 -11 -7 -20 -15 -20 -8 0 -15 9 -15 20 0 11 7 20 15 20 8 0 15 -9 15 -20z m140 -85 l0 -45 -162 0 c-152 0 -163 1 -185 22 l-23 22 22 23 c21 22 27 23 185 23 l163 0 0 -45z m-140 -150 c0 -60 -3 -75 -15 -75 -12 0 -15 15 -15 75 0 60 3 75 15 75 12 0 15 -15 15 -75z"/> <path d="M367 736 c-69 -25 -111 -71 -133 -144 -23 -76 -6 -140 50 -196 81 -81 199 -87 283 -13 137 120 69 341 -112 361 -32 4 -64 1 -88 -8z m41 -63 c10 -31 10 -33 -13 -33 -29 0 -59 -39 -49 -65 4 -10 31 -28 61 -41 31 -14 53 -30 53 -39 0 -9 -12 -34 -27 -56 -30 -46 -29 -47 -54 41 -7 25 -22 56 -33 70 -12 14 -32 40 -45 58 -22 33 -22 34 -4 54 23 25 86 59 94 50 4 -4 11 -22 17 -39z m104 29 c6 -6 4 -20 -6 -40 -14 -26 -14 -31 -1 -42 19 -16 19 -30 0 -30 -30 0 -15 -40 24 -64 33 -21 39 -31 43 -67 3 -37 0 -44 -27 -65 -17 -13 -54 -29 -82 -35 -48 -11 -55 -10 -105 14 -63 31 -98 79 -105 141 -6 49 2 96 16 96 5 0 19 -17 31 -37 12 -21 28 -42 36 -46 8 -4 14 -17 14 -28 0 -10 4 -27 9 -37 5 -9 13 -30 18 -47 14 -47 37 -43 77 16 20 30 32 58 29 68 -10 29 -34 50 -64 56 -33 8 -62 32 -54 46 4 5 18 9 33 9 48 0 58 13 39 53 -26 54 -23 60 24 54 23 -3 46 -10 51 -15z m72 -59 c32 -49 40 -83 32 -138 -7 -46 -26 -62 -26 -22 0 30 -9 41 -48 61 l-33 17 23 19 c22 18 22 19 5 38 -15 16 -16 24 -7 41 15 30 26 26 54 -16z"/> <path d="M550 742 c0 -4 16 -24 36 -43 119 -112 90 -289 -58 -363 -83 -41 -166 -31 -237 31 -28 23 -42 30 -47 22 -14 -23 103 -98 154 -99 15 0 22 -6 22 -20 0 -17 -7 -20 -45 -20 -34 0 -47 -5 -55 -20 -6 -11 -8 -25 -5 -30 4 -6 58 -10 126 -10 108 0 119 2 119 18 0 29 -21 42 -67 42 -36 0 -43 3 -43 20 0 13 7 20 20 20 62 0 158 73 191 145 28 61 25 149 -7 213 -29 59 -104 126 -104 94z m-15 -522 c4 -6 -30 -10 -95 -10 -65 0 -99 4 -95 10 3 6 46 10 95 10 49 0 92 -4 95 -10z"/> <path d="M1015 721 c-154 -71 -182 -275 -54 -385 22 -18 60 -39 84 -46 31 -9 45 -18 45 -30 0 -13 -6 -16 -25 -12 -30 5 -55 -13 -55 -39 0 -17 9 -19 100 -19 93 0 100 1 100 20 0 24 -34 43 -66 37 -18 -3 -24 0 -24 14 0 11 6 19 13 19 28 0 87 22 121 45 20 13 43 22 51 19 12 -5 15 0 14 22 -1 16 6 46 15 66 17 39 20 99 7 133 -6 15 -1 28 20 53 33 37 36 54 14 75 -18 18 -47 12 -71 -14 -16 -18 -17 -18 -48 8 -17 14 -45 32 -63 40 -46 19 -131 16 -178 -6z m75 -5 c0 -2 -9 -25 -20 -50 l-20 -47 -40 21 c-22 11 -40 23 -40 26 0 5 100 54 113 54 4 0 7 -2 7 -4z m142 -41 c40 -26 40 -27 20 -45 -18 -17 -26 -18 -96 -7 l-75 12 19 42 c18 40 19 41 55 33 20 -4 54 -20 77 -35z m128 -11 c0 -17 -145 -165 -219 -223 -80 -63 -42 -5 77 118 113 118 142 139 142 105z m-335 -58 c17 -5 20 -13 17 -56 -3 -32 0 -50 7 -50 6 0 11 19 11 43 0 24 2 46 5 49 3 3 22 -3 43 -13 20 -11 42 -19 49 -19 20 0 15 -11 -22 -55 -30 -35 -38 -39 -74 -36 -31 2 -41 -1 -41 -12 0 -17 53 -77 68 -77 5 0 16 -10 24 -22 22 -33 49 -18 41 22 -5 27 0 37 33 71 21 21 41 39 44 39 4 0 17 -25 30 -56 l23 -57 -24 -18 c-66 -51 -163 -64 -237 -33 l-37 15 25 19 c33 25 17 39 -20 17 l-29 -17 -28 47 c-37 64 -39 150 -5 206 l24 37 26 -19 c15 -10 36 -21 47 -25z m179 -17 c18 -17 -21 -19 -57 -4 -20 8 -37 17 -37 19 0 7 85 -6 94 -15z m118 -111 c-6 -38 -18 -27 -26 23 -4 28 -2 46 6 57 11 13 14 11 18 -19 3 -19 4 -46 2 -61z m-49 35 c2 -5 7 -26 10 -48 l6 -40 -19 40 c-22 47 -23 55 -11 55 6 0 12 -3 14 -7z m-125 -300 c-21 -2 -55 -2 -75 0 -21 2 -4 4 37 4 41 0 58 -2 38 -4z"/> <path d="M1705 494 c-124 -185 -140 -205 -151 -189 -11 15 -14 16 -19 3 -3 -8 -1 -27 4 -41 l11 -27 309 0 c338 0 321 -3 321 58 -1 26 -1 26 -15 8 -8 -11 -16 -18 -18 -15 -19 25 -177 254 -222 322 -32 48 -64 87 -70 87 -7 0 -75 -93 -150 -206z m243 41 c44 -66 103 -151 131 -190 l51 -70 -62 -3 c-61 -3 -64 -2 -91 30 -35 42 -94 159 -103 204 -3 19 -10 34 -14 34 -5 0 -18 -28 -29 -63 -12 -34 -42 -95 -68 -135 l-47 -72 -68 0 -68 0 49 68 c27 37 88 127 136 200 48 73 91 130 95 125 4 -4 43 -62 88 -128z m-98 -175 l0 -90 -55 0 -54 0 39 56 c21 31 44 71 50 90 7 19 13 34 16 34 2 0 4 -40 4 -90z m99 -59 l22 -31 -50 0 -51 0 0 83 0 82 29 -51 c15 -29 38 -66 50 -83z"/> </g> </svg> 